<?xml version="1.0" encoding="UTF-8"?>
<!DOCTYPE svg PUBLIC "-//W3C//DTD SVG 1.1//EN" "http://www.w3.org/Graphics/SVG/1.1/DTD/svg11.dtd">
<!-- Creator: CorelDRAW X6 -->
<svg xmlns="http://www.w3.org/2000/svg" xml:space="preserve" width="566px" height="56px" version="1.1" style="shape-rendering:geometricPrecision; text-rendering:geometricPrecision; image-rendering:optimizeQuality; fill-rule:evenodd; clip-rule:evenodd"
viewBox="0 0 1151017 114423"
 xmlns:xlink="http://www.w3.org/1999/xlink">
 <defs>
  <style type="text/css">
   <![CDATA[
    .fil0 {fill:#2B2A29;fill-rule:nonzero}
   ]]>
  </style>
 </defs>
 <g id="Layer_x0020_1">
  <metadata id="CorelCorpID_0Corel-Layer"/>
  <path class="fil0" d="M62722 0l-62722 0 0 21361 62722 -21106 0 -255zm-62722 24582l0 81366c0,5425 5086,8475 11104,8475 1948,0 4407,-422 6103,-1016 1609,-593 60346,-21104 60346,-21104l0 -83910c0,0 -58399,20425 -60262,21018 -1780,595 -3900,1018 -6103,1018 -5934,0 -10933,-2798 -10933,-5847l-255 0z"/>
  <path class="fil0" d="M155955 16020l-8053 0 0 39668c0,9407 -2375,14238 -10850,14238 -8474,0 -11102,-4831 -11102,-14238l0 -39668 -8052 0 0 40007c0,13899 5593,21526 19154,21526 13562,0 18903,-7627 18903,-21526l0 -40007zm34494 61111l7630 0 0 -26445c0,-8984 -5512,-14323 -13393,-14323 -4832,0 -7798,2118 -9239,3814l0 -3391 -7627 0 0 40345 7627 0 0 -26191c0,-4577 2712,-7797 7968,-7797 4491,0 7034,3136 7034,7713l0 26275zm28309 -52720c0,-3220 -1864,-4832 -5000,-4832 -3220,0 -5002,1612 -5002,4832 0,3052 1782,4748 5002,4748 3136,0 5000,-1528 5000,-4748zm-8813 12375l0 40345 7627 0 0 -40345 -7627 0zm28308 40345l7375 0 14748 -40345 -8478 0 -9915 30174 -10002 -30174 -8475 0 14747 40345z"/>
  <path class="fil0" d="M296227 60011l0 -4069c0,-11781 -6018,-19579 -16952,-19579 -9577,0 -17204,7289 -17204,20934 0,13986 8220,20256 18393,20256 6357,0 10086,-1099 13729,-2795l-1357 -7375c-2965,1525 -6440,2966 -12288,2966 -5170,0 -9409,-2966 -10257,-10338l25936 0zm-25936 -6105c848,-8391 4832,-10763 8984,-10763 5425,0 8900,3729 8900,10763l-17884 0zm53993 -16782c-764,-338 -2205,-761 -3730,-761 -4068,0 -6104,2373 -7375,5000l0 -4577 -7627 0 0 40345 7627 0 0 -26191c0,-4152 2119,-6779 5341,-6779 2118,0 3814,593 4746,1016l1018 -8053zm33392 33225l-17461 0 18393 -33563 -30088 0 0 6357 18393 0 -19241 33988 30004 0 0 -6782zm17375 -45938c0,-3220 -1863,-4832 -5000,-4832 -3220,0 -5002,1612 -5002,4832 0,3052 1782,4748 5002,4748 3137,0 5000,-1528 5000,-4748zm-8813 12375l0 40345 7627 0 0 -40345 -7627 0z"/>
  <path class="fil0" d="M404123 69417c-1440,680 -2879,1273 -4829,1273 -1695,0 -3220,-848 -3220,-3730l0 -23817 6609 0 0 -6357 -6609 0 0 -16527 -7630 848 0 15679 -5254 0 0 6357 5254 0 0 23817c0,8814 5425,10593 10086,10593 3475,0 5255,-677 6612,-1354l-1019 -6782zm29414 7714l7627 0 0 -27207c0,-8815 -5171,-13561 -14239,-13561 -6527,0 -10511,1525 -12967,2457l847 6950c2289,-932 6525,-2457 11273,-2457 4236,0 7459,1780 7459,6611l0 4916c-1612,-1695 -5171,-3307 -9409,-3307 -7968,0 -13900,4578 -13900,13139 0,8307 4916,12881 13645,12881 5680,0 8391,-2540 9664,-3981l0 3559zm0 -12291c0,2882 -3475,5764 -7884,5764 -3730,0 -7373,-1609 -7373,-5932 0,-4748 3389,-6443 7373,-6443 4068,0 7884,2120 7884,5257l0 1354zm58483 12291l0 -53484 14834 0 0 -7627 -37718 0 0 7627 14832 0 0 53484 8052 0z"/>
  <path class="fil0" d="M540669 56958c0,-14918 -8813,-20595 -18390,-20595 -9493,0 -18393,5677 -18393,20595 0,14918 8559,20595 18393,20595 9745,0 18390,-5677 18390,-20595zm-8052 0c0,8730 -4407,13391 -10338,13391 -5850,0 -10341,-4661 -10341,-13391 0,-9068 4323,-13815 10341,-13815 6015,0 10338,4747 10338,13815zm62638 20173l7627 0 0 -26445c0,-8984 -5509,-14323 -13391,-14323 -5511,0 -9238,2882 -11359,5932 -2288,-3814 -6272,-5932 -11272,-5932 -4832,0 -7798,2118 -9239,3814l0 -3391 -7627 0 0 40345 7627 0 0 -26191c0,-4577 2712,-7797 7968,-7797 4491,0 7034,3136 7034,7713l0 26275 7630 0 0 -26191c0,-4577 2711,-7797 7965,-7797 4494,0 7037,3136 7037,7713l0 26275zm29665 -46025l6018 0 7966 -13390 -8559 0 -5425 13390zm10596 46025l7627 0 0 -27207c0,-8815 -5171,-13561 -14239,-13561 -6527,0 -10511,1525 -12968,2457l848 6950c2289,-932 6525,-2457 11273,-2457 4236,0 7459,1780 7459,6611l0 4916c-1612,-1695 -5171,-3307 -9409,-3307 -7968,0 -13900,4578 -13900,13139 0,8307 4916,12881 13645,12881 5680,0 8391,-2540 9664,-3981l0 3559zm0 -12291c0,2882 -3475,5764 -7884,5764 -3730,0 -7373,-1609 -7373,-5932 0,-4748 3389,-6443 7373,-6443 4068,0 7884,2120 7884,5257l0 1354zm27122 -33734l8136 0 7884 -13390 -6782 0 -5170 7543 -5170 -7543 -6780 0 7882 13390zm18309 34414c0,-8816 -7375,-10680 -13309,-12291 -3898,-1102 -7205,-2034 -7205,-4916 0,-3645 2798,-5170 7375,-5170 4662,0 7714,1272 10850,2713l1271 -7120c-2712,-1102 -6696,-2373 -12291,-2373 -9493,0 -15170,3898 -15170,12034 0,8391 6440,10173 12036,11614 4323,1099 8220,2034 8220,5677 0,3645 -3391,4661 -6950,4661 -4577,0 -8645,-1354 -11865,-2882l-1357 7205c2459,1102 6866,2881 13222,2881 10680,0 15173,-4322 15173,-12033zm40935 -5509l0 -4069c0,-11781 -6018,-19579 -16952,-19579 -9577,0 -17204,7289 -17204,20934 0,13986 8220,20256 18393,20256 6357,0 10086,-1099 13729,-2795l-1356 -7375c-2966,1525 -6441,2966 -12289,2966 -5170,0 -9409,-2966 -10257,-10338l25936 0zm-25936 -6105c848,-8391 4832,-10763 8984,-10763 5425,0 8900,3729 8900,10763l-17884 0zm91286 5680c0,-6525 -3644,-11782 -9153,-14071 5084,-2456 8730,-6270 8730,-13222 0,-10087 -6611,-16273 -17884,-16273l-18222 0 0 61111 16949 0c12036,0 19580,-6527 19580,-17545zm-8900 -26868c0,6018 -4153,9068 -10425,9068l-9152 0 0 -18139 10254 0c5425,0 9323,2882 9323,9071zm425 27038c0,6270 -4493,9748 -10850,9748l-9152 0 0 -20089 9152 0c6272,0 10850,3814 10850,10341zm39413 17375l7627 0 0 -27207c0,-8815 -5170,-13561 -14238,-13561 -6528,0 -10512,1525 -12968,2457l847 6950c2289,-932 6525,-2457 11273,-2457 4236,0 7459,1780 7459,6611l0 4916c-1612,-1695 -5171,-3307 -9409,-3307 -7968,0 -13900,4578 -13900,13139 0,8307 4916,12881 13645,12881 5680,0 8391,-2540 9664,-3981l0 3559zm0 -12291c0,2882 -3475,5764 -7884,5764 -3730,0 -7373,-1609 -7373,-5932 0,-4748 3389,-6443 7373,-6443 4068,0 7884,2120 7884,5257l0 1354zm36190 4577c-1441,680 -2879,1273 -4829,1273 -1696,0 -3221,-848 -3221,-3730l0 -23817 6609 0 0 -6357 -6609 0 0 -16527 -7629 848 0 15679 -5255 0 0 6357 5255 0 0 23817c0,8814 5425,10593 10086,10593 3475,0 5254,-677 6611,-1354l-1018 -6782zm17461 -45006c0,-3220 -1863,-4832 -5000,-4832 -3220,0 -5002,1612 -5002,4832 0,3052 1782,4748 5002,4748 3137,0 5000,-1528 5000,-4748zm-8813 12375l0 40345 7627 0 0 -40345 -7627 0zm47804 40345l7375 0 14747 -40345 -8477 0 -9916 30174 -10002 -30174 -8475 0 14748 40345z"/>
  <path class="fil0" d="M968786 60011l0 -4069c0,-11781 -6018,-19579 -16952,-19579 -9577,0 -17204,7289 -17204,20934 0,13986 8220,20256 18393,20256 6356,0 10086,-1099 13729,-2795l-1357 -7375c-2966,1525 -6441,2966 -12288,2966 -5171,0 -9409,-2966 -10257,-10338l25936 0zm-25936 -6105c848,-8391 4832,-10763 8984,-10763 5425,0 8900,3729 8900,10763l-17884 0zm86030 15598l-23563 0 25343 -53484 -35597 0 0 7627 23561 0 -25257 53484 35513 0 0 -7627zm9409 -53484l0 61111 7628 0 0 -61111 -7628 0zm19241 15086l6018 0 7966 -13390 -8559 0 -5425 13390zm255 5680l0 40345 7627 0 0 -40345 -7627 0zm42124 40345l7630 0 0 -26445c0,-8984 -5512,-14323 -13394,-14323 -4831,0 -7797,2118 -9238,3814l0 -3391 -7627 0 0 40345 7627 0 0 -26191c0,-4577 2711,-7797 7968,-7797 4491,0 7034,3136 7034,7713l0 26275zm30004 -46025l8136 0 7884 -13390 -6781 0 -5171 7543 -5170 -7543 -6780 0 7882 13390zm21104 28905l0 -4069c0,-11781 -6018,-19579 -16952,-19579 -9577,0 -17204,7289 -17204,20934 0,13986 8220,20256 18393,20256 6357,0 10086,-1099 13729,-2795l-1357 -7375c-2965,1525 -6440,2966 -12288,2966 -5170,0 -9409,-2966 -10257,-10338l25936 0zm-25936 -6105c848,-8391 4832,-10763 8984,-10763 5425,0 8900,3729 8900,10763l-17884 0z"/>
 </g>
</svg>
