<?xml version="1.0" encoding="UTF-8" standalone="no"?>
<!DOCTYPE svg PUBLIC "-//W3C//DTD SVG 1.1//EN" "http://www.w3.org/Graphics/SVG/1.1/DTD/svg11.dtd">
<svg width="100%" height="100%" viewBox="0 0 899 255" version="1.1" xmlns="http://www.w3.org/2000/svg" xmlns:xlink="http://www.w3.org/1999/xlink" xml:space="preserve" xmlns:serif="http://www.serif.com/" style="fill-rule:evenodd;clip-rule:evenodd;stroke-linejoin:round;stroke-miterlimit:2;">
    <g transform="matrix(1,0,0,1,-3939.17,-389.585)">
        <g transform="matrix(2,0,0,2,3788.51,0)">
            <g transform="matrix(1,0,0,1,269.817,250.339)">
                <path d="M0,22.299C-1.874,26.342 -0.709,33.42 -4.7,35.341C-4.844,35.415 -5.076,35.389 -5.206,35.296C-9.346,32.293 -8.53,24.59 -9.099,19.086C-9.118,18.926 -9.219,18.699 -9.323,18.578C-11.137,16.513 -12.783,14.285 -12.835,10.462C-12.468,8.951 -10.785,8.752 -9.404,8.254C-9.253,8.197 -9.118,8.019 -9.097,7.857C-8.314,1.104 -8.043,-6.111 -8.634,-11.467C-8.646,-11.564 -8.549,-11.788 -8.31,-11.826C-0.388,-13.116 2.141,-5.951 1.549,2.622C1.538,2.763 1.685,3.03 1.907,2.929C8.416,0.771 22.316,-8.25 24.158,3.231C24.184,3.388 24.091,3.587 23.955,3.672C17.527,7.628 9.606,10.089 2.704,13.57C2.559,13.643 2.568,13.736 2.725,13.776C11.911,16.138 19.906,17.183 30.391,17.851C30.554,17.859 30.631,17.747 30.573,17.596C25.936,5.741 43.762,-4.984 57.995,-1.11C59.553,-0.689 60.55,0.875 62.165,1.668C68.398,4.728 73.056,6.777 73.267,13.411C73.272,13.57 73.234,13.829 73.18,13.98C68.975,25.828 44.879,30.678 33.237,22.669C33.102,22.576 32.875,22.551 32.728,22.613C23.054,26.629 9.757,23.003 0.418,22.064C0.257,22.048 0.066,22.152 0,22.299M64.663,8.522C54.677,5.393 40.866,8.541 36.827,16.68C36.753,16.824 36.831,16.954 36.993,16.969C48.295,18.038 61.071,16.853 64.818,8.878C64.888,8.731 64.818,8.571 64.663,8.522" style="fill:rgb(65,64,66);fill-rule:nonzero;"/>
            </g>
        </g>
        <g transform="matrix(2,0,0,2,3788.51,0)">
            <g transform="matrix(1,0,0,1,506.618,254.116)">
                <path d="M0,15.85C0.387,18.813 5.059,24.529 2.48,27.835C2.38,27.961 2.166,28.095 2.007,28.12C-0.178,28.485 -1.381,26.242 -3.45,25.383C-3.602,25.321 -3.626,25.195 -3.517,25.079C-1.001,22.464 -5.45,18.932 -6.841,16.283C-6.916,16.139 -7.098,16.039 -7.259,16.062C-17.444,17.482 -28.181,15.68 -32.737,22.719C-32.827,22.854 -33.026,22.967 -33.186,22.947C-34.764,22.755 -34.799,21.019 -35.875,20.324C-36.014,20.239 -36.264,20.199 -36.427,20.214C-45.98,21.064 -54.129,21.446 -62.702,19.334C-62.859,19.294 -63.068,19.363 -63.161,19.496C-64.877,21.969 -63.061,25.653 -66.407,26.598C-66.562,26.643 -66.777,26.572 -66.882,26.449C-73.4,18.839 -70.301,9.635 -68.081,-0.643C-67.748,-2.179 -67.437,-0.566 -66.229,-1.107C-65.239,-2.233 -67.329,-3.085 -66.688,-5.273C-62.689,-11.884 -35.839,-7.785 -37.522,0.281C-38.342,4.207 -52.95,6.985 -56.969,8.613C-58.368,9.182 -59.703,10.687 -61.32,11.297C-61.472,11.356 -61.472,11.433 -61.317,11.479C-54.647,13.537 -44.894,12.511 -36.427,12.771C-36.264,12.776 -36.056,12.675 -35.96,12.547C-30.924,5.818 -25.973,-0.997 -21.03,-7.814C-20.932,-7.947 -20.86,-8.185 -20.878,-8.344C-21.079,-9.939 -22.484,-10.332 -22.685,-11.929C-22.707,-12.086 -22.577,-12.229 -22.415,-12.239C-15.626,-12.635 -9.591,-8.723 -11.948,-2.764C-12.01,-2.616 -12.026,-2.372 -11.975,-2.217C-10.913,1.101 -8.444,3.012 -7.086,6.029C-7.019,6.177 -6.838,6.3 -6.676,6.304C1.187,6.444 9.323,5.076 16.819,6.252C16.977,6.276 17.167,6.414 17.235,6.561C20.762,14.143 6.633,14.917 0.266,15.528C0.108,15.548 -0.02,15.691 0,15.85M-16.342,3.789C-16.987,5.2 -18.124,6.119 -18.867,7.429C-18.944,7.57 -18.875,7.661 -18.717,7.638C-17.049,7.384 -14.733,7.782 -14.032,6.564C-13.952,6.425 -14.028,6.235 -14.148,6.126C-14.914,5.464 -15.073,4.192 -15.963,3.65C-16.102,3.565 -16.274,3.642 -16.342,3.789M-61.769,2.602C-58.419,2.633 -53.225,1.229 -50.272,-0.494C-50.134,-0.577 -50.15,-0.672 -50.309,-0.699C-54.35,-1.44 -59.974,-0.424 -61.903,2.347C-61.993,2.482 -61.931,2.602 -61.769,2.602" style="fill:rgb(65,64,66);fill-rule:nonzero;"/>
            </g>
        </g>
        <g transform="matrix(2,0,0,2,3788.51,0)">
            <g transform="matrix(1,0,0,1,434.37,263.204)">
                <path d="M0,-1.016C0.464,1.323 -0.235,3.994 -4.165,6.392C-10.539,10.283 -33.088,15.614 -41.664,11.021C-45.895,8.76 -49,2.378 -48.146,-2.866C-47.288,-8.148 -38.679,-13.932 -31.943,-14.903C-20.003,-16.63 -9.406,-12.36 -3.701,-7.032C-2.409,-5.825 -0.303,-2.549 0,-1.016M-39.984,3.141C-28.848,2.742 -16.485,1.721 -9.034,-3.62C-8.899,-3.717 -8.911,-3.853 -9.057,-3.922C-19.675,-8.989 -37.332,-5.881 -40.189,2.873C-40.241,3.025 -40.146,3.149 -39.984,3.141" style="fill:rgb(65,64,66);fill-rule:nonzero;"/>
            </g>
        </g>
        <g transform="matrix(2,0,0,2,3788.51,0)">
            <g transform="matrix(1,0,0,1,377.096,248.464)">
                <path d="M0,27.546C-3.732,25.304 -3.763,19.476 -3.902,14.558C-3.906,14.395 -4.029,14.327 -4.17,14.403C-9.252,17.1 -15.962,20.367 -20.84,15.403C-20.954,15.29 -21.09,15.313 -21.145,15.463C-22.769,19.908 -22.017,26.723 -25.435,29.37C-25.562,29.469 -25.79,29.488 -25.933,29.418C-37.904,23.559 -26.309,6.925 -27.031,-1.648C-27.045,-1.811 -26.928,-1.942 -26.768,-1.942C-19.72,-1.934 -18.049,3.914 -18.248,8.882C-18.256,9.042 -18.134,9.149 -17.976,9.116C-13.731,8.288 -10.861,7.105 -7.615,5.007C-4.822,3.201 -1.787,-0.797 1.18,-1.012C4.401,-1.247 9.164,2.814 8.588,5.007C7.898,7.641 5.713,11.883 4.422,16.582C3.168,21.135 3.416,26.625 0.538,27.613C0.384,27.662 0.139,27.629 0,27.546" style="fill:rgb(65,64,66);fill-rule:nonzero;"/>
            </g>
        </g>
        <g transform="matrix(2,0,0,2,3788.51,0)">
            <g transform="matrix(1,0,0,1,155.043,212.225)">
                <path d="M0,109.975L-45.932,94.887L-45.932,49.286L-63.031,36.212C-63.031,36.212 -85.831,25.147 -78.119,0L-30.844,37.553L-30.844,85.498L0,109.975Z" style="fill:rgb(65,64,66);fill-rule:nonzero;"/>
            </g>
        </g>
        <g transform="matrix(2,0,0,2,3788.51,0)">
            <g transform="matrix(1,0,0,1,104.726,284.674)">
                <path d="M0,19.463C0,19.463 -10.612,15.023 -9.919,0L0,5.468L0,19.463Z" style="fill:rgb(128,130,133);fill-rule:nonzero;"/>
            </g>
        </g>
        <g transform="matrix(2,0,0,2,3788.51,0)">
            <g transform="matrix(1,0,0,1,104.726,259.12)">
                <path d="M0,23.416C0,23.416 -12.655,18.071 -11.825,0L0,6.573L0,23.416Z" style="fill:rgb(86,86,89);fill-rule:nonzero;"/>
            </g>
        </g>
        <g transform="matrix(2,0,0,2,3788.51,0)">
            <g transform="matrix(1,0,0,1,89.6111,249.106)">
                <path d="M0,25.872C0,25.872 -13.991,19.97 -13.066,0L0,7.263L0,25.872Z" style="fill:rgb(128,130,133);fill-rule:nonzero;"/>
            </g>
        </g>
        <g transform="matrix(2,0,0,2,3788.51,0)">
            <g transform="matrix(1,0,0,1,165.006,212.225)">
                <path d="M0,109.975L45.932,94.887L45.932,49.286L63.033,36.212C63.033,36.212 85.834,25.147 78.122,0L30.846,37.553L30.846,85.498L0,109.975Z" style="fill:rgb(65,64,66);fill-rule:nonzero;"/>
            </g>
        </g>
        <g transform="matrix(2,0,0,2,3788.51,0)">
            <g transform="matrix(1,0,0,1,215.326,284.674)">
                <path d="M0,19.463C0,19.463 10.609,15.023 9.917,0L0,5.468L0,19.463Z" style="fill:rgb(128,130,133);fill-rule:nonzero;"/>
            </g>
        </g>
        <g transform="matrix(2,0,0,2,3788.51,0)">
            <g transform="matrix(1,0,0,1,215.326,259.12)">
                <path d="M0,23.416C0,23.416 12.655,18.071 11.824,0L0,6.573L0,23.416Z" style="fill:rgb(86,86,89);fill-rule:nonzero;"/>
            </g>
        </g>
        <g transform="matrix(2,0,0,2,3788.51,0)">
            <g transform="matrix(1,0,0,1,230.438,249.106)">
                <path d="M0,25.872C0,25.872 13.991,19.97 13.065,0L0,7.263L0,25.872Z" style="fill:rgb(128,130,133);fill-rule:nonzero;"/>
            </g>
        </g>
        <g transform="matrix(2,0,0,2,3788.51,0)">
            <g transform="matrix(1,0,0,1,155.47,319.35)">
                <path d="M0,-17.905L-10.06,-11.936L4.69,0L19.438,-11.936L9.378,-17.905L0,-17.905Z" style="fill:rgb(86,86,89);fill-rule:nonzero;"/>
            </g>
        </g>
        <g transform="matrix(2,0,0,2,3788.51,0)">
            <g transform="matrix(1,0,0,1,163.994,274.39)">
                <path d="M0,21.345L14.495,29.358L25.665,21.345L25.665,-7.645C25.665,-7.645 10.217,-8.013 9.548,5.232C9.548,5.232 10.074,15.141 0.853,16.315L0,21.345Z" style="fill:rgb(86,86,89);fill-rule:nonzero;"/>
            </g>
        </g>
        <g transform="matrix(2,0,0,2,3788.51,0)">
            <g transform="matrix(1,0,0,1,156.323,274.39)">
                <path d="M0,21.345L-14.493,29.358L-25.663,21.345L-25.663,-7.645C-25.663,-7.645 -10.221,-8.013 -9.55,5.232C-9.55,5.232 -10.074,15.141 -0.855,16.315L0,21.345Z" style="fill:rgb(86,86,89);fill-rule:nonzero;"/>
            </g>
        </g>
        <g transform="matrix(2,0,0,2,3788.51,0)">
            <g transform="matrix(1,0,0,1,130.66,276.722)">
                <path d="M0,-28.049L0,-20.18C0,-20.18 20.681,-20.453 23.532,0L35.464,0C38.314,-20.453 58.999,-20.18 58.999,-20.18L58.999,-28.049L0,-28.049Z" style="fill:rgb(128,130,133);fill-rule:nonzero;"/>
            </g>
        </g>
        <g transform="matrix(2,0,0,2,3788.51,0)">
            <g transform="matrix(1,0,0,1,179.267,206.915)">
                <path d="M0,24.094C0.414,23.566 0.692,22.613 0.692,21.517C0.692,19.853 0.062,18.505 -0.719,18.505C-1.497,18.505 -2.13,19.853 -2.13,21.517C-2.13,22.624 -1.845,23.58 -1.427,24.106L-2.232,24.121C-2.369,24.127 -9.146,24.483 -10.996,24.017L-11.692,23.703C-16.748,21.336 -15.39,15.349 -15.39,15.349C-15.181,14.026 -13.021,13.957 -13.021,13.957C-10.377,14.096 -11,16.672 -11,16.672C-11.143,17.297 -11.211,18.064 -11.211,18.064C-11.282,21.406 -8.01,20.014 -8.01,20.014C-6.896,19.522 -5.295,20.501 -5.295,20.501C-5.434,16.809 -8.641,18.084 -8.641,18.084C-10.041,18.316 -9.333,18.064 -9.333,18.064C-9.542,16.881 -7.523,16.809 -7.523,16.809C-4.11,16.949 -2.58,14.862 -2.58,14.862C2.367,7.272 -5.574,4.419 -5.574,4.419C-9.685,3.032 -13.408,5.027 -15.212,6.297C-15.088,5.631 -14.694,4.765 -14.694,4.765C-11.211,0.309 -13.232,-2.928 -13.232,-2.928C3.096,3.516 5.601,18.064 5.601,18.064C1.969,18.283 3.512,20.71 3.512,20.71C4.736,19.83 4.862,19.955 5.775,20.397C6.716,20.849 7.62,18.064 7.62,18.064C8.908,16.358 8.919,19.077 8.919,19.077C8.122,23.634 1.957,24.069 0,24.094M3.91,32.978C1.791,32.978 0.074,31.451 0.074,29.569C0.074,27.686 1.791,26.16 3.91,26.16C6.031,26.16 7.747,27.686 7.747,29.569C7.747,31.451 6.031,32.978 3.91,32.978M-19.107,33.829C-23.184,33.829 -26.483,31.922 -26.483,29.569C-26.483,27.215 -23.184,25.307 -19.107,25.307C-15.034,25.307 -11.735,27.215 -11.735,29.569C-11.735,31.922 -15.034,33.829 -19.107,33.829M-27.22,24.017C-29.07,24.483 -35.843,24.127 -35.986,24.121L-36.785,24.106C-36.367,23.58 -36.087,22.624 -36.087,21.517C-36.087,19.853 -36.717,18.505 -37.497,18.505C-38.274,18.505 -38.909,19.853 -38.909,21.517C-38.909,22.613 -38.628,23.566 -38.218,24.094C-40.171,24.069 -46.336,23.634 -47.137,19.077C-47.137,19.077 -47.121,16.358 -45.837,18.064C-45.837,18.064 -44.932,20.849 -43.992,20.397C-43.076,19.955 -42.954,19.83 -41.726,20.71C-41.726,20.71 -40.186,18.283 -43.818,18.064C-43.818,18.064 -41.31,3.516 -24.984,-2.928C-24.984,-2.928 -27.005,0.309 -23.524,4.765C-23.524,4.765 -23.126,5.631 -23.002,6.297C-24.808,5.027 -28.529,3.032 -32.643,4.419C-32.643,4.419 -40.579,7.272 -35.636,14.862C-35.636,14.862 -34.102,16.949 -30.695,16.809C-30.695,16.809 -28.674,16.881 -28.885,18.064C-28.885,18.064 -28.175,18.316 -29.573,18.084C-29.573,18.084 -32.783,16.809 -32.923,20.501C-32.923,20.501 -31.32,19.522 -30.208,20.014C-30.208,20.014 -26.931,21.406 -27.005,18.064C-27.005,18.064 -27.071,17.297 -27.212,16.672C-27.212,16.672 -27.837,14.096 -25.191,13.957C-25.191,13.957 -23.033,14.026 -22.826,15.349C-22.826,15.349 -21.47,21.336 -26.524,23.703L-27.22,24.017ZM-42.128,32.978C-44.248,32.978 -45.965,31.451 -45.965,29.569C-45.965,27.686 -44.248,26.16 -42.128,26.16C-40.007,26.16 -38.291,27.686 -38.291,29.569C-38.291,31.451 -40.007,32.978 -42.128,32.978M-19.107,-2.764C-17.401,-2.764 -16.02,-1.379 -16.02,0.326C-16.02,2.031 -17.401,3.415 -19.107,3.415C-20.813,3.415 -22.197,2.031 -22.197,0.326C-22.197,-1.379 -20.813,-2.764 -19.107,-2.764M8.73,5.358C8.73,5.358 5.349,1.635 2.46,6.298C2.46,6.298 1.675,5.163 0.058,3.534C0.508,3.175 0.797,2.633 0.797,2.017C0.797,0.94 -0.077,0.066 -1.153,0.066C-1.837,0.066 -2.439,0.422 -2.787,0.961C-3.311,0.531 -3.876,0.096 -4.483,-0.341C-4.187,-0.685 -4.007,-1.122 -4.007,-1.607C-4.007,-2.684 -4.877,-3.555 -5.956,-3.555C-6.73,-3.555 -7.391,-3.1 -7.705,-2.447C-8.277,-2.777 -8.873,-3.108 -9.492,-3.427C-9.374,-3.678 -9.302,-3.954 -9.302,-4.251C-9.302,-5.326 -10.172,-6.199 -11.251,-6.199C-12.044,-6.199 -12.721,-5.724 -13.027,-5.047C-14.411,-5.601 -15.903,-6.095 -17.479,-6.522C-16.589,-7.046 -15.98,-8.002 -15.98,-9.113C-15.98,-10.773 -17.446,-12.122 -19.107,-12.122C-20.77,-12.122 -22.236,-10.773 -22.236,-9.113C-22.236,-8.002 -21.629,-7.046 -20.735,-6.522C-22.313,-6.095 -23.802,-5.601 -25.187,-5.047C-25.496,-5.724 -26.173,-6.199 -26.965,-6.199C-28.04,-6.199 -28.912,-5.326 -28.912,-4.251C-28.912,-3.954 -28.844,-3.678 -28.726,-3.427C-29.345,-3.108 -29.939,-2.777 -30.508,-2.447C-30.823,-3.1 -31.488,-3.555 -32.261,-3.555C-33.337,-3.555 -34.209,-2.684 -34.209,-1.607C-34.209,-1.122 -34.029,-0.685 -33.733,-0.341C-34.342,0.096 -34.903,0.531 -35.429,0.961C-35.777,0.422 -36.377,0.066 -37.061,0.066C-38.14,0.066 -39.015,0.94 -39.015,2.017C-39.015,2.633 -38.72,3.175 -38.274,3.534C-39.891,5.163 -40.678,6.298 -40.678,6.298C-43.567,1.635 -46.942,5.358 -46.942,5.358C-46.727,3.324 -48.607,-1.539 -48.607,-1.539L-48.607,36.216L10.393,36.216L10.393,-1.539C10.393,-1.539 8.511,3.324 8.73,5.358" style="fill:rgb(251,176,64);fill-rule:nonzero;"/>
            </g>
        </g>
        <g transform="matrix(2,0,0,2,3788.51,0)">
            <g transform="matrix(1,0,0,1,506.401,232.624)">
                <path d="M0,-17.53L3.251,-20.556L0.921,-20.556C0.135,-19.548 -0.805,-18.516 -1.926,-17.53L0,-17.53ZM-4.753,-1.503L-3.048,-6.145L2.423,-6.145C2.916,-4.707 3.566,-2.78 3.945,-1.503L6.253,-1.503L0.743,-16.724L-1.052,-16.724C-1.973,-13.811 -4.931,-6.075 -6.858,-1.503L-4.753,-1.503ZM-2.418,-7.87C-1.77,-9.641 -0.987,-11.768 -0.245,-13.586C0.515,-11.768 1.21,-9.842 1.861,-7.87L-2.418,-7.87ZM-13.808,-9.662L-8.269,-16.612L-10.425,-16.612L-15.152,-10.873C-15.825,-10.044 -16.16,-9.91 -16.407,-9.91C-16.407,-12.801 -16.361,-15.178 -16.319,-16.612L-18.426,-16.612L-18.426,-1.503L-16.407,-1.503L-16.407,-9.012C-16.16,-9.012 -15.847,-8.9 -15.377,-8.318L-9.796,-1.503L-7.576,-1.503L-13.808,-9.662ZM-30.865,-12.755C-30.865,-8.655 -24.681,-8.655 -24.681,-5.402C-24.681,-3.789 -26.114,-3.05 -28.11,-3.05C-28.962,-3.05 -29.879,-3.163 -30.845,-3.385L-30.845,-1.48C-29.879,-1.279 -28.939,-1.19 -27.977,-1.19C-24.836,-1.19 -22.438,-2.646 -22.438,-5.605C-22.438,-9.866 -28.65,-10.245 -28.65,-13.002C-28.65,-14.458 -27.505,-15.132 -25.934,-15.132C-25.128,-15.132 -24.233,-14.998 -23.377,-14.706L-23.377,-16.746C-24.209,-16.926 -24.994,-16.969 -25.801,-16.969C-28.65,-16.969 -30.865,-15.335 -30.865,-12.755M-39.653,-18.63C-40.169,-19.076 -40.797,-19.885 -41.266,-20.556L-43.129,-20.556L-40.572,-17.53L-38.847,-17.53C-38.174,-18.495 -37.188,-19.594 -36.269,-20.556L-37.971,-20.556L-39.653,-18.63ZM-41.806,-9.618C-41.806,-10.852 -41.785,-13.091 -41.692,-14.571C-41.692,-14.863 -41.583,-15.11 -40.078,-15.11C-38.396,-15.11 -36.984,-14.302 -36.984,-12.488C-36.984,-10.515 -38.218,-9.618 -40.326,-9.618L-41.806,-9.618ZM-37.881,-8.564C-36.068,-9.169 -34.81,-10.627 -34.81,-12.6C-34.81,-15.491 -36.896,-16.835 -39.922,-16.835C-41.648,-16.835 -42.054,-16.612 -43.822,-16.612L-43.822,-1.503L-41.806,-1.503L-41.806,-7.847L-40.508,-7.847C-39.99,-7.847 -39.676,-7.689 -39.185,-6.928L-35.418,-1.503L-33.085,-1.503L-37.881,-8.564ZM-53.283,-17.53L-50.031,-20.556L-52.365,-20.556C-53.148,-19.548 -54.09,-18.516 -55.209,-17.53L-53.283,-17.53ZM-58.037,-1.503L-56.331,-6.145L-50.862,-6.145C-50.37,-4.707 -49.72,-2.78 -49.338,-1.503L-47.029,-1.503L-52.543,-16.724L-54.338,-16.724C-55.255,-13.811 -58.215,-6.075 -60.144,-1.503L-58.037,-1.503ZM-55.704,-7.87C-55.054,-9.641 -54.27,-11.768 -53.529,-13.586C-52.768,-11.768 -52.073,-9.842 -51.423,-7.87L-55.704,-7.87ZM-72.204,-9.819C-72.204,-11.882 -72.158,-13.429 -72.134,-14.369C-72.134,-14.795 -71.666,-14.998 -70.162,-14.998C-66.87,-14.998 -64.806,-13.161 -64.806,-8.945C-64.806,-4.64 -66.801,-2.959 -70.162,-2.959C-70.971,-2.959 -72.204,-3.118 -72.204,-3.565L-72.204,-9.819ZM-74.22,-1.503C-72.583,-1.503 -71.621,-1.19 -70.207,-1.19C-66.06,-1.19 -62.651,-3.385 -62.651,-9.034C-62.651,-14.594 -65.881,-16.791 -70.119,-16.791C-71.328,-16.791 -72.673,-16.612 -74.22,-16.612L-74.22,-1.503ZM-85.563,-2.959C-88.32,-2.959 -90.226,-4.776 -90.226,-9.012C-90.226,-13.227 -88.32,-15.132 -85.563,-15.132C-82.828,-15.132 -80.922,-13.339 -80.922,-9.104C-80.922,-4.888 -82.828,-2.959 -85.563,-2.959M-85.563,-16.969C-89.284,-16.969 -92.422,-14.414 -92.422,-9.012C-92.422,-3.632 -89.284,-1.167 -85.563,-1.167C-81.863,-1.167 -78.725,-3.7 -78.725,-9.104C-78.725,-14.505 -81.863,-16.969 -85.563,-16.969M-102.443,-14.414C-102.419,-14.774 -102.353,-15.087 -100.648,-15.087C-98.876,-15.087 -97.645,-14.147 -97.645,-12.353C-97.645,-10.559 -98.968,-9.684 -100.849,-9.684C-101.366,-9.684 -101.994,-9.751 -102.555,-9.886C-102.555,-11.188 -102.532,-12.957 -102.443,-14.414M-95.403,-12.418C-95.403,-15.267 -97.399,-16.835 -100.583,-16.835C-102.107,-16.835 -102.981,-16.612 -104.57,-16.612L-104.57,-1.503L-102.555,-1.503L-102.555,-8.229C-101.859,-8.071 -101.166,-7.982 -100.493,-7.982C-97.6,-7.982 -95.403,-9.595 -95.403,-12.418M-117.013,-12.755C-117.013,-8.655 -110.825,-8.655 -110.825,-5.402C-110.825,-3.789 -112.262,-3.05 -114.255,-3.05C-115.106,-3.05 -116.026,-3.163 -116.99,-3.385L-116.99,-1.48C-116.026,-1.279 -115.085,-1.19 -114.12,-1.19C-110.983,-1.19 -108.584,-2.646 -108.584,-5.605C-108.584,-9.866 -114.793,-10.245 -114.793,-13.002C-114.793,-14.458 -113.651,-15.132 -112.081,-15.132C-111.275,-15.132 -110.378,-14.998 -109.527,-14.706L-109.527,-16.746C-110.356,-16.926 -111.142,-16.969 -111.946,-16.969C-114.793,-16.969 -117.013,-15.335 -117.013,-12.755M-127.325,-2.959C-130.082,-2.959 -131.988,-4.776 -131.988,-9.012C-131.988,-13.227 -130.082,-15.132 -127.325,-15.132C-124.589,-15.132 -122.683,-13.339 -122.683,-9.104C-122.683,-4.888 -124.589,-2.959 -127.325,-2.959M-127.325,-16.969C-131.046,-16.969 -134.182,-14.414 -134.182,-9.012C-134.182,-3.632 -131.046,-1.167 -127.325,-1.167C-123.627,-1.167 -120.486,-3.7 -120.486,-9.104C-120.486,-14.505 -123.627,-16.969 -127.325,-16.969M-147.7,-8.632L-140.772,-8.632L-140.772,-1.503L-138.758,-1.503L-138.758,-9.73C-138.758,-12.957 -138.69,-15.11 -138.667,-16.612L-140.772,-16.612L-140.772,-10.469L-147.7,-10.469C-147.7,-13.497 -147.655,-15.221 -147.611,-16.612L-149.719,-16.612L-149.719,-1.503L-147.7,-1.503L-147.7,-8.632ZM-166.934,-17.53L-163.684,-20.556L-166.013,-20.556C-166.799,-19.548 -167.743,-18.516 -168.862,-17.53L-166.934,-17.53ZM-171.687,-1.503L-169.982,-6.145L-164.513,-6.145C-164.021,-4.707 -163.368,-2.78 -162.989,-1.503L-160.681,-1.503L-166.196,-16.724L-167.986,-16.724C-168.907,-13.811 -171.866,-6.075 -173.792,-1.503L-171.687,-1.503ZM-169.355,-7.87C-168.705,-9.641 -167.921,-11.768 -167.182,-13.586C-166.42,-11.768 -165.724,-9.842 -165.075,-7.87L-169.355,-7.87ZM-180.742,-9.662L-175.205,-16.612L-177.359,-16.612L-182.086,-10.873C-182.761,-10.044 -183.098,-9.91 -183.341,-9.91C-183.341,-12.801 -183.3,-15.178 -183.253,-16.612L-185.36,-16.612L-185.36,-1.503L-183.341,-1.503L-183.341,-9.012C-183.098,-9.012 -182.781,-8.9 -182.312,-8.318L-176.73,-1.503L-174.512,-1.503L-180.742,-9.662ZM-197.804,-12.755C-197.804,-8.655 -191.615,-8.655 -191.615,-5.402C-191.615,-3.789 -193.049,-3.05 -195.044,-3.05C-195.896,-3.05 -196.817,-3.163 -197.781,-3.385L-197.781,-1.48C-196.817,-1.279 -195.873,-1.19 -194.911,-1.19C-191.773,-1.19 -189.372,-2.646 -189.372,-5.605C-189.372,-9.866 -195.584,-10.245 -195.584,-13.002C-195.584,-14.458 -194.44,-15.132 -192.87,-15.132C-192.064,-15.132 -191.167,-14.998 -190.316,-14.706L-190.316,-16.746C-191.145,-16.926 -191.928,-16.969 -192.734,-16.969C-195.584,-16.969 -197.804,-15.335 -197.804,-12.755M-204.032,-0.83C-204.032,0.539 -204.998,1.075 -206.589,0.628L-206.589,2.645C-203.923,3.026 -202.015,1.703 -202.015,-0.741L-202.015,-9.819C-202.015,-13.072 -201.95,-15.178 -201.927,-16.612L-204.032,-16.612L-204.032,-0.83ZM-218.333,-1.503L-216.631,-6.145L-211.162,-6.145C-210.667,-4.707 -210.017,-2.78 -209.637,-1.503L-207.328,-1.503L-212.843,-16.724L-214.636,-16.724C-215.556,-13.811 -218.515,-6.075 -220.441,-1.503L-218.333,-1.503ZM-216.003,-7.87C-215.355,-9.641 -214.57,-11.768 -213.83,-13.586C-213.065,-11.768 -212.371,-9.842 -211.723,-7.87L-216.003,-7.87ZM-230.439,-9.618C-230.439,-10.852 -230.418,-13.091 -230.327,-14.571C-230.327,-14.863 -230.215,-15.11 -228.713,-15.11C-227.032,-15.11 -225.62,-14.302 -225.62,-12.488C-225.62,-10.515 -226.854,-9.618 -228.96,-9.618L-230.439,-9.618ZM-226.517,-8.564C-224.7,-9.169 -223.446,-10.627 -223.446,-12.6C-223.446,-15.491 -225.531,-16.835 -228.556,-16.835C-230.285,-16.835 -230.685,-16.612 -232.458,-16.612L-232.458,-1.503L-230.439,-1.503L-230.439,-7.847L-229.14,-7.847C-228.624,-7.847 -228.312,-7.689 -227.817,-6.928L-224.05,-1.503L-221.721,-1.503L-226.517,-8.564ZM-241.378,-9.662L-235.843,-16.612L-237.993,-16.612L-242.723,-10.873C-243.396,-10.044 -243.733,-9.91 -243.979,-9.91C-243.979,-12.801 -243.934,-15.178 -243.89,-16.612L-245.996,-16.612L-245.996,-1.503L-243.979,-1.503L-243.979,-9.012C-243.733,-9.012 -243.42,-8.9 -242.948,-8.318L-237.367,-1.503L-235.146,-1.503L-241.378,-9.662Z" style="fill:rgb(65,64,66);fill-rule:nonzero;"/>
            </g>
        </g>
        <g transform="matrix(2,0,0,2,3788.51,0)">
            <g transform="matrix(1,0,0,1,486.022,294.85)">
                <path d="M0,14.595L0,11.673C-1.626,11.741 -2.967,11.765 -5.447,11.765C-5.777,11.765 -5.867,11.507 -5.867,11.25L-5.867,7.765L-0.792,7.765L-0.792,4.935L-5.867,4.935C-5.867,4.115 -5.867,2.783 -5.843,2.034C-5.82,1.615 -5.669,1.567 -5.447,1.567C-3.032,1.567 -1.055,1.59 -0.176,1.707L-0.176,-1.17L-8.939,-1.17L-8.939,14.595L0,14.595ZM-17.572,15.554C-17.572,16.49 -18.692,16.842 -19.901,16.28L-19.901,19.437C-17.066,20.256 -14.496,18.43 -14.496,15.648L-14.496,5.94C-14.496,2.456 -14.453,1.075 -14.431,-1.17L-17.572,-1.17L-17.572,15.554ZM-31.519,14.595L-30.354,11.109L-25.479,11.109C-25.107,12.281 -24.754,13.472 -24.448,14.595L-21.087,14.595L-26.358,-1.17L-29.257,-1.17C-30.158,1.87 -32.902,9.822 -34.77,14.595L-31.519,14.595ZM-29.388,8.232C-29.016,7.04 -28.4,5.168 -27.894,3.765C-27.325,5.238 -26.731,6.923 -26.358,8.232L-29.388,8.232ZM-44.676,6.199C-44.676,5.028 -44.654,2.758 -44.589,1.731C-44.589,1.542 -44.302,1.378 -43.403,1.378C-42.216,1.378 -41.316,2.223 -41.316,3.719C-41.316,5.356 -42.326,6.199 -43.666,6.199L-44.676,6.199ZM-40.855,7.695C-38.899,7.087 -37.977,5.238 -37.977,3.507C-37.977,0.256 -40.172,-1.452 -43.27,-1.452C-45.4,-1.452 -45.686,-1.17 -47.752,-1.17L-47.752,14.595L-44.676,14.595L-44.676,9.076L-44.06,9.076C-43.885,9.076 -43.599,9.214 -43.205,9.87L-39.823,14.595L-36.264,14.595L-40.855,7.695ZM-56.295,6.103L-51.462,-1.17L-54.78,-1.17L-59.063,4.819C-59.524,5.472 -59.853,5.636 -60.16,5.636C-60.16,3.298 -60.16,1.052 -60.095,-1.17L-63.235,-1.17L-63.235,14.595L-60.16,14.595L-60.16,7.04C-59.875,7.04 -59.59,7.133 -59.282,7.556L-54.163,14.595L-50.781,14.595L-56.295,6.103ZM-82.389,12.069C-84.542,12.069 -85.969,10.453 -85.969,6.736C-85.969,3.016 -84.542,1.356 -82.389,1.356C-80.258,1.356 -78.83,2.924 -78.83,6.643C-78.83,10.385 -80.258,12.069 -82.389,12.069M-82.389,-1.545C-86.144,-1.545 -89.306,1.099 -89.306,6.736C-89.306,12.349 -86.144,14.923 -82.389,14.923C-78.676,14.923 -75.492,12.281 -75.492,6.643C-75.492,1.004 -78.676,-1.545 -82.389,-1.545M-102.441,7.718L-97.191,7.718L-97.191,14.595L-94.116,14.595L-94.116,6.035C-94.116,2.619 -94.094,1.121 -94.051,-1.17L-97.191,-1.17L-97.191,4.701L-102.441,4.701C-102.441,1.519 -102.419,1.004 -102.376,-1.17L-105.517,-1.17L-105.517,14.595L-102.441,14.595L-102.441,7.718ZM-113.71,-2.293L-110.305,-5.661L-113.577,-5.661C-114.346,-4.538 -115.423,-3.347 -116.52,-2.293L-113.71,-2.293ZM-110.107,14.595L-110.107,11.673C-111.731,11.741 -113.071,11.765 -115.553,11.765C-115.884,11.765 -115.97,11.507 -115.97,11.25L-115.97,7.765L-110.897,7.765L-110.897,4.935L-115.97,4.935C-115.97,4.115 -115.97,2.783 -115.949,2.034C-115.927,1.615 -115.772,1.567 -115.553,1.567C-113.138,1.567 -111.16,1.59 -110.282,1.707L-110.282,-1.17L-119.046,-1.17L-119.046,14.595L-110.107,14.595ZM-127.589,6.103L-122.758,-1.17L-126.075,-1.17L-130.358,4.819C-130.82,5.472 -131.148,5.636 -131.455,5.636C-131.455,3.298 -131.455,1.052 -131.389,-1.17L-134.531,-1.17L-134.531,14.595L-131.455,14.595L-131.455,7.04C-131.169,7.04 -130.885,7.133 -130.578,7.556L-125.46,14.595L-122.077,14.595L-127.589,6.103ZM-147.601,3.204C-147.601,7.556 -142.042,7.508 -142.042,10.268C-142.042,11.484 -143.032,11.999 -144.482,11.999C-145.579,11.999 -146.501,11.881 -147.578,11.577L-147.578,14.55C-146.523,14.805 -145.359,14.923 -144.371,14.923C-141.142,14.923 -138.684,13.215 -138.684,9.963C-138.684,5.52 -144.261,5.076 -144.261,2.876C-144.261,1.824 -143.559,1.356 -142.482,1.356C-141.407,1.356 -140.35,1.567 -139.539,1.941L-139.539,-1.263C-140.418,-1.427 -141.252,-1.545 -142.372,-1.545C-145.293,-1.545 -147.601,0.327 -147.601,3.204M-160.888,4.327C-159.768,5.753 -156.254,12.537 -155.397,14.595L-152.213,14.595L-152.213,5.894C-152.213,2.549 -152.147,-0.047 -152.123,-1.17L-155.287,-1.17L-155.287,7.415C-155.287,7.624 -155.287,7.905 -155.376,7.905C-155.397,7.905 -155.53,7.695 -155.617,7.531L-160.492,-1.17L-163.942,-1.17L-163.942,14.595L-160.888,14.595L-160.888,4.327ZM-170.202,-2.293L-166.796,-5.661L-170.068,-5.661C-170.837,-4.538 -171.914,-3.347 -173.013,-2.293L-170.202,-2.293ZM-172.572,-1.17L-172.572,14.595L-169.499,14.595L-169.499,5.94C-169.499,3.578 -169.499,1.052 -169.431,-1.17L-172.572,-1.17ZM-184.872,-1.17L-184.872,14.595L-176.306,14.595L-176.306,11.648C-177.252,11.717 -178.723,11.765 -181.403,11.765C-181.687,11.765 -181.799,11.601 -181.799,11.343L-181.799,5.94C-181.799,2.456 -181.755,1.075 -181.709,-1.17L-184.872,-1.17ZM-188.607,-0.562L-188.694,-1.17L-199.546,-1.17L-199.546,1.707C-197.787,1.636 -196.207,1.615 -194.077,1.615C-193.879,1.615 -193.724,1.752 -193.724,1.941C-193.724,1.986 -193.746,2.057 -193.767,2.105L-200.534,13.987L-200.445,14.595L-188.826,14.595L-188.826,11.765C-190.276,11.813 -193.504,11.835 -195.833,11.835L-188.607,-0.562Z" style="fill:rgb(128,130,133);fill-rule:nonzero;"/>
            </g>
        </g>
    </g>
</svg>
