<svg width="999px" height="290px" viewBox="0 0 999 290" xmlns="http://www.w3.org/2000/svg"><path d="m40.8 176-.42-.83 65-67.9v-28.3h-104v28.3h32.9c8.75 0 19.4-.21 29.6-.41l.41.82-64.8 67.9v28.3h106v-28.3h-42.1c-6.67 0-15 .21-23.3.41zm79.2 27.9h28.5v-128h-28.5v128zm40.6-119 5.42 14.2 50-16.9-6.24-16.2-49.2 19zm117 17.9c-15.8 0-27.7 7.71-32.3 30.4h-.2v-27.7h-28.5v98.7h28.5v-57.9c0-11.2 6.66-17.9 18.1-17.9 11.9 0 16.5 7.7 16.5 17.9v57.9h28.3v-66c0-21.2-8.95-35.4-30.4-35.4zm71.4 29.2c0-5.41 4.59-8.74 12.9-8.74 2.57 0 4.78.36 6.7 1.06v20c-17.3-3.41-19.6-7.07-19.6-12.3zm19.6-28.9c-2.07-.15-4.2-.25-6.49-.25-27.7 0-41.2 11.7-41.2 30.4 0 16.2 9.38 25.6 37.1 31.5 4.34.87 7.84 1.71 10.6 2.57v18.7c-.98.1-2.03.15-3.15.15-12.1 0-17.9-6.45-20.6-17.5l-26.5 5.22c2.92 18.1 13.1 33.3 46.4 33.3 1.31 0 2.54-.06 3.78-.1v83.3h290v-290h-290v103zm408 2.88v-.42h-32.9l-30.8 38.5h-1.67v-67.5h-28.5v128h28.5v-39.6h1.25l32.5 39.6h33.5v-.41l-43.1-49.8 41.2-48.1zm36.1 34.8h-.41v-35.2h-28.5v98.7h28.5v-47.1c0-14.8 5-19.2 21-19.2h15.7v-32.5h-9.67c-13.8 0-21.9 5.2-26.7 35.2zm111 15.4c0 16.2-7.92 25.4-20.8 25.4-14.6 0-20.8-9.78-20.8-26 0-17.1 6.45-27.3 20.8-27.3 12.9 0 20.8 9.99 20.8 26v1.87zm0-23.8h-.42c-4.79-21-15.6-29.8-32.7-29.6-23.8-.21-36.7 19.4-36.7 52.7 0 32.1 12.3 51.7 36.2 51.7 16.9 0 28.1-8.75 32.9-29.6h.62v26.7h28.3v-98.7h-28.3v26.9zm46.9 68.3c0 5.62-1.87 9.79-7.29 9.79-1.25 0-2.5 0-3.96-.21l-2.49 23.8c2.49.21 4.99.63 7.91.63 25 0 34.2-15.2 34.2-38.6v-90.4h-28.3v95zm-.62-106h29.6v-18.5h-29.6v18.5zm-801 109h28.5v-98.7h-28.5v98.7z"/><path d="m408 181h-3.22v15.9h-7.62v-40.2h7.62v18.1h3.02l14.3-18.1h8.63v.73l-17.3 19.9 18 18.8v.73h-8.84l-14.6-15.9zm27.5 15.9v-31.5h6.83v9.44l.59.06c1.82-7.63 4.76-9.83 9.31-9.83h1.14v8.1h-1.74c-6.63 0-8.97 2.34-8.97 8.77v14.9h-7.16zm41.7-11.8v-1.27h-8.17c-3.61 0-5.68 1.34-5.68 3.95 0 2.28 1.4 4.22 5.49 4.22 5.01 0 8.36-2.94 8.36-6.9zm.33 4.35h-.73c-1.6 5.09-5.22 8.17-10.8 8.17-5.62 0-9.57-2.68-9.57-8.83 0-5.63 3.42-9.71 11.4-9.71h9.37v-2.14c0-4.09-1.67-6.43-6.09-6.43-3.68 0-5.82 1.88-6.63 5.55l-6.83-1.53c1.21-5.97 5.7-9.78 13.7-9.78 9.1 0 13 4.29 13 12.1v20.1h-6.84v-7.5zm14.3-35.1h7.83v5.82h-7.83v-5.82zm-2.75 53.5c-1.13 0-2.13-.13-3.01-.34l.34-6.22c.8.13 1.6.26 2.41.26 2.47 0 3.34-1.74 3.34-4.41v-31.5h7.17v30.7c0 7.03-2.95 11.6-10.2 11.6zm54.5-26.5c0-6.83-2.41-10.1-7.7-10.1-4.95 0-8.1 3.48-8.1 8.97v2.41c0 5.29 3.21 8.9 8.03 8.9 5.29 0 7.77-3.41 7.77-10.2zm-15.8-7.63h.47c1.67-5.42 5.15-8.97 10.8-8.97 7.43 0 11.6 5.88 11.6 16.6 0 10.7-4.35 16.5-11.4 16.5-5.76 0-9.44-3.74-11-9.23h-.47v8.36h-7.16v-43h7.16v19.7zm34.6 4.82h16.1c-.27-5.43-2.68-8.24-7.7-8.24-4.89 0-7.77 2.61-8.44 8.24zm-7.22 3.14c0-10.6 6.02-16.9 15.9-16.9 9.5 0 14.1 5.75 14.1 14.4 0 1.2 0 2.61-.13 4.22h-22.7c.54 5.69 3.42 8.56 8.77 8.56 5.03 0 6.77-2.41 7.64-5.42l6.16 1.74c-1.47 5.69-5.43 9.57-13.9 9.57-9.64 0-15.9-5.62-15.9-16.1zm61.8 9.24v6.09h-27.7v-6.29l19.6-19.2-.4-.8c-3.82.47-8.31.87-11.9.87h-6.7v-6.09h27v6.29l-19.6 19.2.47.87c3.54-.54 7.49-.94 10.8-.94h8.56zm-213 64h-7.16v-43h7.16v19.8h.53c1.81-5.75 5.63-9.1 11.1-9.1 6.49 0 9.58 4.42 9.58 11.2v21h-7.17v-19.2c0-3.81-1.74-6.62-5.96-6.62-4.89 0-8.1 3.21-8.1 7.96v17.8zm28.5 0v-31.5h6.83v9.45l.59.06c1.82-7.63 4.76-9.84 9.31-9.84h1.14v8.1h-1.74c-6.63 0-8.97 2.34-8.97 8.77v14.9h-7.16zm41.7-11.8v-1.27h-8.16c-3.62 0-5.69 1.33-5.69 3.95 0 2.28 1.4 4.21 5.49 4.21 5.01 0 8.36-2.94 8.36-6.89zm.34 4.35h-.74c-1.6 5.09-5.22 8.17-10.8 8.17-5.62 0-9.57-2.68-9.57-8.84 0-5.63 3.42-9.71 11.4-9.71h9.37v-2.14c0-4.09-1.67-6.43-6.09-6.43-3.68 0-5.82 1.88-6.63 5.56l-6.83-1.54c1.21-5.96 5.7-9.77 13.7-9.77 9.1 0 13 4.28 13 12.1v20.1h-6.83v-7.5zm21.3 7.5h-7.16v-31.5h7.03v8.3h.59c1.75-5.82 5.77-9.1 11-9.1 6.56 0 9.71 4.42 9.71 11.2v21h-7.16v-19.2c0-3.81-1.68-6.62-6.03-6.62-4.82 0-8.03 3.21-8.03 7.96v17.8zm28.6-31.5h7.22v31.5h-7.22v-31.5zm-.27-11.2h7.83v5.83h-7.83v-5.83zm29.1 16.7c-5.16 0-8.37 3.28-8.37 10.2 0 6.36 2.95 10.2 8.57 10.2 5.09 0 6.82-3.15 7.76-6.96l6.63 1.6c-1.27 7.3-5.69 11.7-14.3 11.7-9.9 0-16-5.75-16-16.3 0-10.6 6.22-16.8 15.9-16.8 9.04 0 13.1 4.28 14.4 11.8l-6.76 1.27c-.93-4.01-2.81-6.69-7.76-6.69z" fill="#1a1a1a"/></svg>